<?xml version="1.0" encoding="UTF-8" standalone="no"?>
<!-- Created with Inkscape (http://www.inkscape.org/) -->

<svg
   version="1.1"
   id="svg1"
   width="512"
   height="512"
   viewBox="0 0 512 512"
   sodipodi:docname="codepen.png"
   xmlns:inkscape="http://www.inkscape.org/namespaces/inkscape"
   xmlns:sodipodi="http://sodipodi.sourceforge.net/DTD/sodipodi-0.dtd"
   xmlns="http://www.w3.org/2000/svg"
   xmlns:svg="http://www.w3.org/2000/svg">
  <defs
     id="defs1" />
  <sodipodi:namedview
     id="namedview1"
     pagecolor="#505050"
     bordercolor="#eeeeee"
     borderopacity="1"
     inkscape:showpageshadow="0"
     inkscape:pageopacity="0"
     inkscape:pagecheckerboard="0"
     inkscape:deskcolor="#505050" />
  <g
     inkscape:groupmode="layer"
     inkscape:label="Image"
     id="g1">
    <path
       style="fill:#020202;stroke:none"
       d="M 251,0.69906616 C 230.35057,7.3963623 209.51846,25.843658 191,37.189056 147.51341,63.831238 103.73082,89.961853 60,116.19983 45.324577,125.00491 30.393566,133.4259 16,142.69214 9.4909763,146.88248 2.1708677,150.80701 0.47916666,159 -2.2203443,172.07385 0,187.66104 0,201 v 85 c 0,12.58014 -4.4664578,35.88214 1.6527778,47 C 10.286512,348.6864 32.743919,360.68921 47,370.8588 c 36.399246,25.96539 73.8001,50.67462 111,75.47454 24.34354,16.22901 48.51067,32.84693 72,50.2963 8.73726,6.49057 18.98773,17.93213 31,14.14581 7.99365,-2.51959 15.25485,-9.10501 22,-13.91665 12.62152,-9.00354 25.25424,-18.00748 38,-26.83411 C 364.93726,439.59747 408.53067,408.64911 453,379 467.48938,369.33948 481.84726,359.43878 496,349.29013 502.01654,344.9758 510.42639,339.91974 511.77545,332 514.14081,318.11426 512,302.0918 512,288 v -88 c 0,-13.01456 4.57245,-36.98489 -3.65201,-47.90665 C 499.00525,139.68652 476.23492,131.54108 463,123.60031 428.84949,103.1105 394.6929,82.554443 361,61.318665 335.41296,45.191803 309.62781,29.37973 284,13.319458 275.53329,8.0136108 261.62253,-2.7461548 251,0.69906616 M 240,45 v 93 c 0,9.19427 3.56258,27.77756 -1.02779,35.81482 -2.72734,4.7753 -10.45951,7.65991 -14.97221,10.50384 -12.26457,7.72928 -24.63884,15.29728 -37,22.8704 -9.97734,6.11264 -20.05382,12.07269 -30,18.23532 -3.59038,2.22461 -8.45007,6.69757 -13,5.73999 -10.16536,-2.13941 -22.54816,-14.76303 -31,-20.73999 C 90.830276,194.74643 68.508492,179.18686 46,164 v -2 L 185,77.600311 240,45 m 226,117 v 2 c -23.55518,15.8931 -46.51215,32.66507 -70,48.65588 -7.39761,5.03638 -19.06281,17.18723 -28,18.36417 -4.07977,0.53726 -8.70691,-3.64349 -12,-5.62036 -9.69571,-5.82044 -19.30447,-11.78171 -29,-17.59952 -13.04675,-7.82873 -26.10324,-15.67709 -39,-23.75003 -4.45361,-2.78781 -12.24393,-5.59003 -14.97223,-10.26001 C 268.40878,165.88388 272,147.09589 272,138 V 45 c 19.68552,6.27298 46.42972,25.490139 64.11063,36.223476 C 381.54966,108.80762 419.09152,137.02856 466,162 m -433,31 82,57 v 1 l -83,49 v -74 l 1,-33 m 447,0 V 300 L 451,283.20294 398,251 v -2 l 82,-56 m -142,58 v 2 l -60,41.66974 -22,13.74847 -23,-14.4429 L 174,253 v -2 l 57,-34.42438 25,-13.90432 23,12.53164 L 338,251 M 240,465 182,425.34412 46,331 v -2 c 23.44722,-13.00464 46.132515,-27.80109 69,-41.81097 7.1388,-4.3736 19.52499,-15.65787 28,-15.97992 4.4101,-0.16761 9.60269,4.81277 13,7.21527 9.29413,6.57257 18.64203,13.07037 28,19.55093 12.67433,8.77716 25.25636,17.69278 38,26.36881 5.06631,3.44921 13.82799,7.57373 16.97221,12.95605 C 243.58118,345.18979 240,363.92035 240,373 v 92 M 466,329 v 2 L 332,424.02545 272,465 v -92 c 0,-9.07965 -3.58118,-27.81021 1.02777,-35.69983 3.04755,-5.21683 11.15317,-8.72748 15.97223,-12.15897 12.89224,-9.18008 25.98822,-18.10565 39,-27.11651 9.34155,-6.46915 18.72375,-12.88614 28,-19.44907 3.4949,-2.47262 8.44626,-7.47729 13,-7.41668 8.07053,0.10742 21.18372,11.62448 28,15.89123 22.81488,14.28131 46.04471,27.89783 69,41.94983 z"
       id="path1"
       sodipodi:nodetypes="cssssssssssssssssssssssccsscssssccccccssssssscsccccccccccccccccccccccccccccssssssscccccsssssssc" />
  </g>
</svg>
