<?xml version="1.0" encoding="UTF-8" standalone="no"?>
<!-- Created with Inkscape (http://www.inkscape.org/) -->

<svg
   version="1.1"
   id="svg1"
   width="2048"
   height="2048"
   viewBox="0 0 2048 2048"
   sodipodi:docname="github.png"
   xmlns:inkscape="http://www.inkscape.org/namespaces/inkscape"
   xmlns:sodipodi="http://sodipodi.sourceforge.net/DTD/sodipodi-0.dtd"
   xmlns="http://www.w3.org/2000/svg"
   xmlns:svg="http://www.w3.org/2000/svg">
  <defs
     id="defs1" />
  <sodipodi:namedview
     id="namedview1"
     pagecolor="#505050"
     bordercolor="#eeeeee"
     borderopacity="1"
     inkscape:showpageshadow="0"
     inkscape:pageopacity="0"
     inkscape:pagecheckerboard="0"
     inkscape:deskcolor="#505050" />
  <g
     inkscape:groupmode="layer"
     inkscape:label="Image"
     id="g1">
    <path
       style="fill:#000000"
       d="M 988.5,1983.3291 C 806.41006,1976.0656 636.6629,1920.5678 486.5,1819.2032 304.48312,1696.3362 168.89651,1512.7998 105.52688,1303.5 66.240076,1173.7419 54.789574,1039.0312 71.569129,904 92.064313,739.06782 155.96144,581.22105 256.1874,447.93261 284.99664,409.61979 310.70078,380.15437 346.43635,344.47758 442.77577,248.29663 555.81422,175.07305 683,126.4598 827.54198,71.212614 988.0401,52.10764 1144,71.584431 c 148.1385,18.500031 287.2387,70.328549 412.0096,153.514109 55.4985,37.00126 99.1196,72.88408 147.5128,121.34435 111.9674,112.12261 193.414,247.87885 239.1133,398.55711 64.7143,213.37401 53.0321,444.1141 -32.8836,649.5 -29.6632,70.9113 -70.5534,142.375 -116.5094,203.6229 -47.1122,62.7891 -101.5301,119.6337 -162.1198,169.3497 -128.3084,105.2815 -285.6269,176.5632 -449.1229,203.4997 -61.9744,10.2104 -133.2311,14.7608 -193.5,12.3568 z m -176.89566,-272.551 c -0.39316,-65.0221 -0.80247,-118.3003 -0.90959,-118.3962 -0.10711,-0.096 -7.64297,1.0831 -16.74634,2.6198 -27.24063,4.5983 -37.62813,5.4573 -64.94841,5.3713 -27.14445,-0.086 -43.92256,-1.209 -66.5,-4.4529 -31.33389,-4.5021 -47.09331,-9.005 -68,-19.4294 -15.69901,-7.8278 -28.69738,-16.9431 -41.32017,-28.9766 -10.43484,-9.9477 -15.84178,-16.5742 -23.57761,-28.896 -5.22361,-8.3202 -6.58481,-11.2375 -19.65263,-42.1181 -12.27675,-29.0112 -21.13446,-44.6626 -37.89812,-66.9653 -18.01538,-23.9679 -33.01227,-37.9576 -51.48438,-48.0267 -12.87608,-7.0188 -17.51333,-13.7644 -17.53536,-25.508 -0.0275,-14.672 10.60694,-27.0202 24.6578,-28.6316 6.72017,-0.7706 27.37428,4.3393 39.92516,9.8776 21.46707,9.4728 45.73741,26.2414 62.10609,42.9098 13.8494,14.1029 19.32602,21.4259 33.63839,44.9791 27.77982,45.716 67.04696,76.1582 110.14083,85.3876 23.92919,5.1249 73.98002,1.4043 106,-7.8798 11.57304,-3.3555 31.01567,-10.7584 32.71278,-12.4555 0.45325,-0.4532 1.51321,-4.8433 2.35548,-9.7556 7.04739,-41.1026 22.60557,-74.8935 45.51748,-98.8598 l 8.82922,-9.2355 -18.70748,-2.2334 C 766.07408,1340.0585 706.69425,1321.8164 644,1286.7539 600.71206,1262.5446 563.9396,1229.2637 539.30523,1192 c -30.95969,-46.8318 -53.72349,-110.0384 -63.22497,-175.5522 -7.22543,-49.82014 -8.6019,-107.23106 -3.5232,-146.9478 8.57755,-67.07857 37.37398,-130.33753 81.52448,-179.09004 3.25531,-3.59462 4.90308,-6.21912 4.56323,-7.26811 -0.29256,-0.90302 -2.63382,-6.76136 -5.20279,-13.01855 -5.27496,-12.84807 -11.36627,-36.00064 -13.97646,-53.1233 -2.27868,-14.94796 -3.1382,-55.54903 -1.51909,-71.75659 1.64005,-16.41711 6.27784,-38.81786 11.05426,-53.39259 3.93558,-12.00899 15.67769,-37.50909 18.25803,-39.65058 5.97888,-4.96202 69.67848,-6.55497 96.24128,-2.40672 58.66732,9.16194 101.74057,31.59643 130.74833,68.09964 3.26456,4.10809 7.97992,10.98772 10.47858,15.28805 2.49866,4.30034 4.84634,7.81879 5.21707,7.81879 0.37072,0 6.72248,-1.54864 14.11503,-3.44143 44.64651,-11.43129 89.64578,-18.9005 139.94099,-23.22813 29.01581,-2.49665 100.9842,-2.49665 130,0 50.9382,4.38295 98.9202,12.38755 139.278,23.23505 7.0278,1.88898 13.4821,3.43451 14.3427,3.43451 0.8606,0 12.8856,-7.11268 26.7221,-15.80595 36.5746,-22.97936 56.9243,-33.93056 88.1572,-47.4419 32.352,-13.99545 58.2705,-22.85453 78.8297,-26.94435 13.3745,-2.66056 36.2137,-3.00457 43.625,-0.65708 l 4.4548,1.41101 4.8986,13.46914 c 9.4132,25.88263 15.9861,51.67263 20.381,79.96913 2.5743,16.57491 2.5723,62.67358 0,79 -2.6123,16.55858 -6.043,30.54204 -11.3727,46.35538 -3.1021,9.20406 -4.3582,14.28226 -3.7414,15.12695 0.5106,0.69936 4.0197,4.81444 7.798,9.14462 49.8614,57.14492 77.5163,128.25193 80.4571,206.87305 0.8601,22.99315 -0.2047,62.29403 -2.2622,83.5 -6.254,64.4587 -20.4095,117.7105 -44.5955,167.7647 -16.0483,33.2127 -30.739,54.1002 -55.4189,78.7954 -22.7066,22.7208 -41.5237,37.1757 -69.5501,53.4272 -35.7965,20.757 -81.1397,39.3221 -119.5,48.9275 -25.9894,6.5077 -63.1101,13.1116 -93.8144,16.6898 l -14.8144,1.7264 8.4163,8.5845 c 29.3012,29.8868 45.2912,70.2687 49.686,125.4797 0.6452,8.1048 1.0265,73.5801 1.0265,176.25 0,89.8451 0.2044,163.3548 0.4543,163.3548 0.2499,0 7.7874,-2.2236 16.75,-4.9414 101.5799,-30.8026 195.6983,-80.1915 278.0797,-145.9233 32.0208,-25.5493 69.8828,-61.0682 97.6801,-91.6353 110.4576,-121.4639 182.9502,-274.0521 206.9003,-435.5 9.6582,-65.106 11.6615,-137.9472 5.5688,-202.48927 C 1839.2308,805.65202 1791.7687,673.3357 1713.2531,557.5 1574.5575,352.87937 1352.9956,220.45136 1108.5,196.03792 c -29.5396,-2.9496 -52.3148,-4.03847 -84.3609,-4.03327 -120.91562,0.0196 -233.49231,24.20113 -342.93866,73.66334 -115.7291,52.30158 -219.75458,132.37028 -301.2906,231.90423 -95.14881,116.15155 -157.449,257.57951 -178.88367,406.0847 -16.95714,117.48358 -8.9614,236.44228 23.52963,350.06878 42.79826,149.6725 129.01211,286.317 246.51642,390.7158 94.13977,83.6402 203.05852,143.8657 325.68163,180.0822 8.11038,2.3953 14.93046,4.3825 15.15573,4.4158 0.22527,0.033 0.0879,-53.1394 -0.30524,-118.1614 z"
       id="path1" />
  </g>
</svg>
