<?xml version="1.0" encoding="UTF-8" standalone="no"?>
<!-- Created with Inkscape (http://www.inkscape.org/) -->

<svg
   width="200mm"
   height="300mm"
   viewBox="0 0 200 300"
   version="1.1"
   id="svg1"
   inkscape:export-filename="jscsshtml.svg"
   inkscape:export-xdpi="96"
   inkscape:export-ydpi="96"
   xmlns:inkscape="http://www.inkscape.org/namespaces/inkscape"
   xmlns:sodipodi="http://sodipodi.sourceforge.net/DTD/sodipodi-0.dtd"
   xmlns="http://www.w3.org/2000/svg"
   xmlns:svg="http://www.w3.org/2000/svg">
  <sodipodi:namedview
     id="namedview1"
     pagecolor="#505050"
     bordercolor="#eeeeee"
     borderopacity="1"
     inkscape:showpageshadow="0"
     inkscape:pageopacity="0"
     inkscape:pagecheckerboard="0"
     inkscape:deskcolor="#505050"
     inkscape:document-units="px" />
  <defs
     id="defs1" />
  <g
     inkscape:label="Camada 1"
     inkscape:groupmode="layer"
     id="layer1">
    <path
       style="opacity:1;fill:#d0c84c;fill-opacity:1;stroke:none;stroke-width:0.75418;stroke-linecap:round;stroke-dasharray:none;stroke-opacity:1"
       d="m 36.240995,52.177891 c -8.520963,71.741539 -9.434119,73.274929 51.813343,73.274929 8.746115,0 27.325202,2.98111 35.199302,-4.28725 7.81504,-7.21386 8.83031,-28.532885 10.36363,-37.604537 C 140.97893,40.006799 121.67928,50.221689 85.283686,47.422186 67.292873,46.038357 50.860509,33.193085 36.683434,45.927441"
       id="path24" />
    <path
       style="opacity:0.937758;fill:#d0c84c;fill-opacity:0.465102;stroke:none;stroke-width:0.75418;stroke-linecap:round;stroke-dasharray:none;stroke-opacity:1"
       d="m 45.97682,65.316833 c -8.520963,71.741537 -9.434119,73.274927 51.813343,73.274927 8.746107,0 27.325197,2.98111 35.199297,-4.28725 7.81505,-7.21386 8.83031,-28.53288 10.36363,-37.604535 C 150.71476,53.145741 131.4151,63.360631 95.019509,60.561128 77.028698,59.177299 60.596332,46.332027 46.419259,59.066383"
       id="path24-9" />
    <path
       style="opacity:0.937758;fill:#a078e6;fill-opacity:0.470203;stroke:none;stroke-width:0.79375;stroke-linecap:round;stroke-dasharray:none;stroke-opacity:1"
       d="m 103.34447,106.432 c 2.40699,20.51743 -3.13647,42.90157 2.64025,63.1201 4.53376,15.86815 19.2095,14.44407 34.02377,15.14426 10.79596,0.51026 29.52003,7.57134 40.25289,1.92507 12.89516,-6.78379 5.63953,-28.32019 7.01291,-39.90455 3.11888,-26.30739 4.88493,-39.04355 -24.35811,-42.68717 -18.74477,-2.33556 -37.36169,-2.30245 -56.23126,-2.30245"
       id="path26-8" />
    <path
       style="fill:#0f0f0e;fill-opacity:0.742008;stroke:none;stroke-width:0.968852;stroke-linecap:round;stroke-dasharray:none;stroke-opacity:1"
       d="m 88.025322,103.84251 c 0,0 4.98964,1.56379 6.830388,-1.17767 1.840751,-2.741457 -1.253141,-16.565315 1.778081,-17.287319 3.031222,-0.722001 8.988359,-0.925867 7.489069,-2.678136 -1.49929,-1.752268 -7.105372,-1.990425 -7.216062,-3.808737 -0.110677,-1.818315 2.835455,-13.049898 -0.0686,-14.659278 -2.904012,-1.60938 -9.632962,-2.01094 -9.840067,-0.30452 -0.207104,1.70643 6.343378,0.37315 6.576838,3.80002 0.233457,3.42687 -3.518153,12.542337 -1.792218,13.446887 1.725938,0.904553 -0.949572,2.432089 -0.949572,3.863251 0,1.431162 1.753024,11.393629 0.133631,14.202688 -1.619394,2.809064 -2.941522,4.602814 -2.941522,4.602814 z"
       id="path38-5" />
    <path
       style="opacity:1;fill:#a078e6;fill-opacity:1;stroke:none;stroke-width:0.79375;stroke-linecap:round;stroke-dasharray:none;stroke-opacity:1"
       d="m 92.765,91.628247 c 2.406989,20.517423 -3.136474,42.901573 2.640251,63.120103 4.533757,15.86815 19.209499,14.44407 34.023769,15.14426 10.79596,0.51026 29.52003,7.57134 40.25289,1.92507 12.89516,-6.78379 5.63953,-28.32019 7.01291,-39.90455 3.11888,-26.3074 4.88493,-39.043553 -24.35811,-42.687172 -18.74477,-2.335559 -37.36169,-2.30245 -56.231258,-2.30245"
       id="path26" />
    <path
       style="opacity:1;fill:#ea987a;fill-opacity:0.999908;stroke:none;stroke-width:0.79375;stroke-linecap:round;stroke-dasharray:none;stroke-opacity:1"
       d="m 44.688823,150.5133 c -30.694009,56.89286 -9.82241,74.72012 46.415306,74.72012 10.753191,0 28.950431,1.74957 37.855491,-5.40983 7.0061,-5.63269 8.79334,-20.60609 10.81,-28.67274 11.05783,-44.23132 -42.497027,-45.2865 -76.563113,-45.2865"
       id="path27" />
    <path
       style="opacity:1;fill:#ea987a;fill-opacity:0.46989;stroke:none;stroke-width:0.79375;stroke-linecap:round;stroke-dasharray:none;stroke-opacity:1"
       d="m 57.905583,163.1711 c -30.694009,56.89286 -9.82241,74.72012 46.415307,74.72012 10.75319,0 28.95043,1.74957 37.85549,-5.40983 7.0061,-5.63269 8.79334,-20.60609 10.81,-28.67274 11.05783,-44.23132 -42.49703,-45.2865 -76.563112,-45.2865"
       id="path27-7" />
    <path
       style="opacity:1;fill:#0f0f0e;fill-opacity:0.742008;stroke:none;stroke-width:0.740257;stroke-linecap:round;stroke-dasharray:none;stroke-opacity:1"
       d="m 74.899195,169.22822 c 0,0 -17.694194,9.29215 -16.307345,13.38142 1.386846,4.08927 9.330246,18.22248 12.499359,16.59736 3.169112,-1.62511 -9.453432,-15.34343 -7.904599,-16.90416 1.548832,-1.56074 15.436079,-7.34153 14.252013,-9.83818 -1.184067,-2.49666 -2.539428,-3.23644 -2.539428,-3.23644 z"
       id="path36" />
    <path
       style="fill:#0f0f0e;fill-opacity:0.742008;stroke:none;stroke-width:0.740257;stroke-linecap:round;stroke-dasharray:none;stroke-opacity:1"
       d="m 95.274341,203.00292 c 0,0 17.694199,-9.29215 16.307339,-13.38141 -1.38684,-4.08928 -9.33024,-18.22249 -12.499352,-16.59736 -3.169113,1.62511 9.453432,15.34343 7.904602,16.90416 -1.54884,1.56073 -15.436082,7.34153 -14.252017,9.83818 1.184068,2.49665 2.539428,3.23643 2.539428,3.23643 z"
       id="path36-1" />
    <path
       style="opacity:1;fill:#0f0f0e;fill-opacity:0.742008;stroke:none;stroke-width:0.764033;stroke-linecap:round;stroke-dasharray:none;stroke-opacity:1"
       d="m 88.374716,170.64418 c 0,0 -13.347088,32.60941 -11.61935,34.45267 1.727738,1.84327 4.685662,0.82549 5.730592,-1.90366 1.044926,-2.72914 10.941131,-35.31705 9.41193,-35.4456 -1.529199,-0.12855 -3.523172,2.89659 -3.523172,2.89659 z"
       id="path37" />
    <path
       style="opacity:1;fill:#0f0f0e;fill-opacity:0.742008;stroke:none;stroke-width:0.968852;stroke-linecap:round;stroke-dasharray:none;stroke-opacity:1"
       d="m 72.14041,61.974383 c 0,0 -4.989635,-1.563795 -6.830398,1.177668 -1.840764,2.74146 1.253151,16.56533 -1.77809,17.287334 -3.031239,0.722001 -8.988379,0.925867 -7.489091,2.678136 1.499289,1.752268 7.105394,1.990425 7.216076,3.808737 0.110684,1.818315 -2.835464,13.049885 0.06856,14.659262 2.904032,1.60938 9.632989,2.01094 9.840094,0.30452 0.207104,-1.70643 -6.343379,-0.37315 -6.576838,-3.800008 -0.23346,-3.426866 3.518153,-12.542333 1.792218,-13.446883 -1.725938,-0.904553 0.949572,-2.432089 0.949572,-3.863251 0,-1.431162 -1.753024,-11.393625 -0.133631,-14.202701 1.619394,-2.809073 2.941522,-4.602814 2.941522,-4.602814 z"
       id="path38" />
    <path
       style="fill:#0f0f0e;fill-opacity:0.742008;stroke:none;stroke-width:0.968852;stroke-linecap:round;stroke-dasharray:none;stroke-opacity:1"
       d="m 128.17492,108.58067 c 0,0 -4.98963,-1.56379 -6.83039,1.17767 -1.84077,2.74146 1.25315,16.56533 -1.77809,17.28734 -3.03124,0.722 -8.98838,0.92587 -7.48909,2.67813 1.49929,1.75227 7.10539,1.99043 7.21607,3.80874 0.11069,1.81832 -2.83546,13.0499 0.0686,14.65928 2.90403,1.60938 9.63299,2.01094 9.84009,0.30452 0.20711,-1.70643 -6.34337,-0.37315 -6.57683,-3.80002 -0.23346,-3.42687 3.51815,-12.54234 1.79222,-13.44689 -1.72594,-0.90455 0.94957,-2.43209 0.94957,-3.86325 0,-1.43116 -1.75303,-11.39363 -0.13363,-14.2027 1.61939,-2.80907 2.94152,-4.60282 2.94152,-4.60282 z"
       id="path38-0" />
    <path
       style="fill:#0f0f0e;fill-opacity:0.742008;stroke:none;stroke-width:0.968852;stroke-linecap:round;stroke-dasharray:none;stroke-opacity:1"
       d="m 137.62663,149.68603 c 0,0 4.98963,1.5638 6.83039,-1.17766 1.84077,-2.74146 -1.25315,-16.56533 1.77809,-17.28734 3.03124,-0.722 8.98838,-0.92587 7.48909,-2.67813 -1.49929,-1.75227 -7.10539,-1.99043 -7.21607,-3.80874 -0.11069,-1.81832 2.83546,-13.0499 -0.0686,-14.65928 -2.90403,-1.60938 -9.63299,-2.01094 -9.8401,-0.30452 -0.2071,1.70643 6.34338,0.37315 6.57684,3.80002 0.23346,3.42687 -3.51815,12.54234 -1.79222,13.44689 1.72594,0.90455 -0.94957,2.43209 -0.94957,3.86325 0,1.43116 1.75303,11.39362 0.13363,14.2027 -1.61939,2.80907 -2.94152,4.60281 -2.94152,4.60281 z"
       id="path38-7" />
    <path
       style="opacity:1;fill:#0f0f0e;fill-opacity:0.742008;stroke:none;stroke-width:0.79375;stroke-linecap:round;stroke-dasharray:none;stroke-opacity:1"
       d="m 80.616102,73.645829 c -4.014137,1.853562 -3.695404,5.612228 -1.474907,5.598178 2.220497,-0.01405 5.072031,-2.623013 4.298715,-3.904924 -0.773314,-1.281912 -2.823808,-1.693254 -2.823808,-1.693254 z"
       id="path39" />
    <path
       style="opacity:1;fill:#0f0f0e;fill-opacity:0.742008;stroke:none;stroke-width:0.79375;stroke-linecap:round;stroke-dasharray:none;stroke-opacity:1"
       d="m 82.061116,86.185097 c 0,0 -2.91959,0.409882 -3.039065,2.012961 -0.119473,1.603076 2.024732,4.223922 1.025141,6.490321 -0.999593,2.266397 -0.360812,4.569927 1.659488,2.332461 2.0203,-2.237473 0.354436,-10.835743 0.354436,-10.835743 z"
       id="path40" />
  </g>
</svg>
